<?xml version="1.0" standalone="no"?>
<!DOCTYPE svg PUBLIC "-//W3C//DTD SVG 20010904//EN"
 "http://www.w3.org/TR/2001/REC-SVG-20010904/DTD/svg10.dtd">
<svg version="1.0" xmlns="http://www.w3.org/2000/svg"
 width="147.000000pt" height="147.000000pt" viewBox="0 0 147.000000 147.000000"
 preserveAspectRatio="xMidYMid meet">
<metadata>
Created by potrace 1.14, written by Peter Selinger 2001-2017
</metadata>
<g transform="translate(0.000000,147.000000) scale(0.100000,-0.100000)"
fill="#000000" stroke="none">
<path d="M963 1425 c-55 -48 -70 -54 -79 -30 -14 36 -67 -6 -79 -63 -4 -18
-15 -37 -26 -42 -10 -6 -19 -15 -19 -20 0 -12 73 -50 95 -50 24 0 18 -13 -24
-50 -52 -46 -56 -71 -13 -82 17 -5 32 -13 32 -19 0 -8 13 -9 38 -4 69 13 84
13 102 -4 9 -9 23 -17 30 -19 8 -2 26 -12 41 -23 15 -10 33 -19 41 -19 10 0 9
-3 -2 -10 -10 -6 -11 -10 -2 -10 7 0 12 -13 12 -30 0 -39 42 -122 74 -148 14
-11 24 -27 22 -38 -2 -10 -1 -13 1 -6 3 8 11 11 21 6 10 -4 42 -9 73 -11 43
-4 59 -1 73 12 21 21 17 34 -15 54 l-24 15 23 -23 c31 -31 14 -51 -42 -51
-115 1 -116 37 -1 63 16 4 15 5 -5 6 -14 0 -43 -8 -63 -18 l-38 -19 -26 26
c-31 31 -62 98 -63 134 0 29 1 29 83 13 9 -2 15 1 11 6 -3 5 -20 9 -37 9 -37
0 -51 9 -54 30 -1 8 -9 42 -17 74 -9 32 -15 60 -14 61 2 1 18 10 35 19 45 23
103 75 103 93 0 17 -69 48 -127 58 -24 4 -43 7 -44 8 0 1 -2 25 -5 52 -11 112
-16 115 -91 50z"/>
<path d="M303 1411 c-85 -53 -44 -123 135 -231 39 -25 71 -49 69 -55 -11 -31
-187 -102 -187 -75 0 5 -8 6 -19 3 -42 -11 -118 51 -108 88 4 16 3 19 -5 11
-28 -28 47 -112 102 -112 11 0 20 -3 20 -6 0 -9 -23 -48 -36 -62 -18 -17 -78
-42 -103 -42 -11 0 -22 -4 -25 -9 -8 -12 69 6 105 25 16 8 40 32 54 54 19 31
32 40 53 40 35 1 98 29 139 64 26 22 36 25 52 17 39 -21 121 -7 121 20 0 6 -7
3 -16 -5 -31 -31 -138 -12 -127 23 4 13 3 14 -5 2 -18 -26 -211 101 -241 157
-28 52 26 111 89 97 59 -13 152 -143 153 -211 0 -13 3 -24 8 -24 14 0 -1 54
-34 119 -54 108 -130 151 -194 112z"/>
<path d="M729 1293 c-22 -59 -31 -131 -26 -208 6 -91 40 -195 64 -195 10 0 13
5 8 18 -39 95 -51 157 -46 254 1 21 5 25 21 21 24 -6 95 6 86 15 -4 3 -27 5
-53 3 l-45 -3 5 34 c3 18 9 45 12 61 10 36 -12 36 -26 0z"/>
<path d="M210 1161 c0 -6 5 -11 11 -11 16 0 62 -38 76 -63 7 -12 12 -17 13
-11 0 18 -35 57 -69 77 -17 10 -31 13 -31 8z"/>
<path d="M1265 1114 c-50 -17 -92 -41 -116 -65 -34 -34 -20 -31 20 3 42 36
127 68 180 68 61 0 100 -34 101 -87 0 -45 -26 -57 -135 -64 l-90 -5 85 -2
c105 -2 150 18 150 69 0 41 -15 66 -50 84 -36 18 -92 18 -145 -1z"/>
<path d="M636 1094 c-20 -19 -20 -29 0 -48 18 -18 17 -18 38 -10 22 9 20 51
-3 64 -15 7 -23 6 -35 -6z"/>
<path d="M864 1021 c-85 -52 -79 -186 11 -230 106 -52 222 47 185 159 -27 81
-123 116 -196 71z"/>
<path d="M1010 1032 c0 -9 60 -46 64 -40 2 1 -12 13 -30 25 -19 12 -34 19 -34
15z"/>
<path d="M553 1015 c-62 -26 -82 -111 -37 -164 66 -79 195 -26 186 76 -6 72
-81 116 -149 88z"/>
<path d="M10 964 c25 -29 120 -63 120 -43 0 5 -11 9 -25 9 -30 0 -85 26 -85
40 0 6 -5 10 -11 10 -8 0 -7 -5 1 -16z"/>
<path d="M385 876 c-13 -19 -13 -28 -4 -50 7 -14 21 -28 31 -32 27 -8 68 22
68 51 0 53 -66 75 -95 31z"/>
<path d="M1083 833 c-17 -6 -16 -38 0 -52 21 -17 56 12 41 35 -12 20 -23 25
-41 17z"/>
<path d="M681 803 c-47 -23 -81 -80 -83 -136 -1 -82 54 -145 136 -154 57 -7
97 9 136 53 109 125 -38 311 -189 237z"/>
<path d="M433 766 c-37 -17 -55 -46 -56 -94 -1 -27 6 -41 31 -63 92 -82 218
40 135 130 -34 37 -68 45 -110 27z"/>
<path d="M1005 751 c-52 -22 -80 -84 -62 -138 13 -40 66 -83 95 -78 9 2 25 4
34 4 29 1 77 53 83 89 14 83 -73 154 -150 123z"/>
<path d="M1190 723 c0 -5 5 -15 10 -23 7 -12 9 -10 7 8 -1 19 -17 33 -17 15z"/>
<path d="M1220 645 c0 -19 57 -73 98 -94 44 -23 78 -26 102 -11 10 6 4 8 -21
4 -46 -8 -106 22 -148 73 -17 21 -31 33 -31 28z"/>
<path d="M475 538 c-73 -65 -31 -173 67 -170 45 1 88 49 88 98 0 78 -96 123
-155 72z"/>
<path d="M880 525 c-56 -30 -67 -110 -21 -156 54 -54 139 -29 160 47 10 35
-10 88 -38 103 -29 16 -77 19 -101 6z"/>
<path d="M675 465 c-50 -49 -15 -135 55 -135 39 0 80 42 80 82 0 39 -40 78
-80 78 -19 0 -40 -9 -55 -25z"/>
<path d="M613 373 c-18 -6 -16 -50 2 -57 23 -8 45 4 45 25 0 20 -28 39 -47 32z"/>
<path d="M814 315 c-46 -46 -15 -114 52 -115 48 0 84 53 62 93 -27 52 -75 61
-114 22z"/>
<path d="M661 303 c-33 -28 -36 -69 -7 -98 14 -14 37 -25 51 -25 23 0 64 29
66 48 0 4 2 15 4 24 4 24 -39 68 -68 68 -14 0 -34 -8 -46 -17z"/>
<path d="M960 300 c-14 -27 4 -52 34 -48 31 4 30 62 -1 66 -14 2 -26 -4 -33
-18z"/>
<path d="M922 184 c-41 -28 -16 -94 35 -94 42 0 63 56 33 88 -25 26 -38 27
-68 6z"/>
<path d="M776 174 c-32 -32 -10 -94 34 -94 11 0 28 9 38 21 45 47 -26 119 -72
73z"/>
<path d="M870 79 c-9 -15 -8 -24 1 -35 27 -33 79 1 58 39 -14 23 -46 21 -59
-4z"/>
</g>
</svg>
